# xmcd
#
# Track frame offsets: 
#        150
#        12007
#        22037
#        32220
#
# Disc length: 619 seconds
#
# Revision: 4
# Processed by: cddbd v1.5.2PL0 Copyright (c) Steve Scherf et al.
# Submitted via: ExactAudioCopy v0.99pb3
#
DISCID=26026904
DTITLE=Elvis Presley - Live In Las Vegas
DYEAR=2002
DGENRE=Rock
TTITLE0=Are You Lonesome Tonight (the famous laughing version)
TTITLE1=Runaway (unreleased version)
TTITLE2=Baby, What You Want Me To Do (unreleased version)
TTITLE3=Reconsider Baby (unreleased version)
EXTD=Erscheinungsdatum: 10.09.2002\nLabel: Japan\nEAN: 4988017603437
EXTT0=
EXTT1=
EXTT2=
EXTT3=
PLAYORDER=
